<?xml version="1.0" encoding="UTF-8"?>
<svg width="1920px" height="1080px" viewBox="0 0 1920 1080" version="1.1" xmlns="http://www.w3.org/2000/svg" xmlns:xlink="http://www.w3.org/1999/xlink">
    <!-- Generator: Sketch 63.1 (92452) - https://sketch.com -->
    <title>single-view-kit</title>
    <desc>Created with Sketch.</desc>
    <defs>
        <polygon id="path-1" points="16.5 0 33 11.6666667 29.7 11.6666667 29.7 25 21.45 25 21.45 16.6666667 11.55 16.6666667 11.55 25 3.3 25 3.3 11.6666667 0 11.6666667"></polygon>
        <filter x="-3.0%" y="-4.0%" width="106.1%" height="108.0%" filterUnits="objectBoundingBox" id="filter-2">
            <feGaussianBlur stdDeviation="0.5" in="SourceAlpha" result="shadowBlurInner1"></feGaussianBlur>
            <feOffset dx="1" dy="1" in="shadowBlurInner1" result="shadowOffsetInner1"></feOffset>
            <feComposite in="shadowOffsetInner1" in2="SourceAlpha" operator="arithmetic" k2="-1" k3="1" result="shadowInnerInner1"></feComposite>
            <feColorMatrix values="0 0 0 0 0   0 0 0 0 0   0 0 0 0 0  0 0 0 0.05 0" type="matrix" in="shadowInnerInner1"></feColorMatrix>
        </filter>
    </defs>
    <g id="single-view-kit" stroke="none" stroke-width="1" fill="none" fill-rule="evenodd">
        <rect fill="#FFFFFF" x="0" y="0" width="1920" height="1080"></rect>
        <g id="trees-icon-label" transform="translate(413.000000, 102.000000)">
            <path d="M146.96,52.5642857 L146.96,42.1642857 L151.24,42.1642857 C157,42.1642857 160.96,39.6042857 160.96,34.0442857 C160.96,28.2842857 156.96,26.3242857 151.08,26.3242857 L143.6,26.3242857 L143.6,52.5642857 L146.96,52.5642857 Z M150.84,39.4442857 L146.96,39.4442857 L146.96,29.0442857 L150.68,29.0442857 C155.28,29.0442857 157.6,30.2842857 157.6,34.0442857 C157.6,37.7642857 155.4,39.4442857 150.84,39.4442857 Z M170.44,53.0442857 C172.88,53.0442857 175,51.8042857 176.84,50.2442857 L176.96,50.2442857 L177.28,52.5642857 L180,52.5642857 L180,40.6042857 C180,35.8042857 177.96,32.6442857 173.24,32.6442857 C170.12,32.6442857 167.4,33.9642857 165.6,35.1642857 L166.88,37.4042857 C168.4,36.4042857 170.44,35.4042857 172.68,35.4042857 C175.84,35.4042857 176.64,37.7642857 176.68,40.2042857 C168.36,41.1242857 164.76,43.2042857 164.76,47.5242857 C164.76,51.0442857 167.2,53.0442857 170.44,53.0442857 Z M171.36,50.3242857 C169.48,50.3242857 168,49.4842857 168,47.3242857 C168,44.8042857 170.12,43.3242857 176.68,42.5642857 L176.68,47.8442857 C174.8,49.4842857 173.24,50.3242857 171.36,50.3242857 Z M194.16,53.0442857 C198.92,53.0442857 202.72,49.1242857 202.72,42.9242857 C202.72,37.2442857 199.52,33.8442857 194.92,33.8442857 C192.48,33.8442857 190.08,34.9642857 188.36,37.0842857 C188.96,29.0842857 191.64,28.5642857 197.88,27.6442857 C199.52,27.4042857 200.88,27.0442857 201.92,26.3642857 L201.24,23.3642857 C200.04,23.9242857 199.36,24.1242857 197.2,24.4442857 C189.8,25.5642857 185,27.6442857 185,40.7642857 C185,48.6042857 188.36,53.0442857 194.16,53.0442857 Z M194.16,50.2842857 C190.2,50.2842857 188.2,47.0042857 188.2,41.4042857 L188.2,39.8842857 L188.2,39.8842857 C190.16,37.2442857 192.2,36.4042857 194.08,36.4042857 C197.44,36.4042857 199.28,38.9242857 199.28,42.9242857 C199.28,47.3242857 197.16,50.2842857 194.16,50.2842857 Z M215.48,53.0442857 C220.24,53.0442857 224.52,49.3242857 224.52,42.8842857 C224.52,36.3642857 220.24,32.6442857 215.48,32.6442857 C210.72,32.6442857 206.48,36.3642857 206.48,42.8842857 C206.48,49.3242857 210.72,53.0442857 215.48,53.0442857 Z M215.48,50.2842857 C212.16,50.2842857 209.92,47.3242857 209.92,42.8842857 C209.92,38.4042857 212.16,35.4042857 215.48,35.4042857 C218.84,35.4042857 221.08,38.4042857 221.08,42.8842857 C221.08,47.3242857 218.84,50.2842857 215.48,50.2842857 Z M243.56,52.5642857 L243.56,33.1242857 L240.24,33.1242857 L240.24,42.1642857 C239.12,42.4042857 238.24,42.5242857 237.08,42.5242857 C233.56,42.5242857 232,41.3242857 232,38.4442857 L232,33.1242857 L228.68,33.1242857 L228.68,38.4442857 C228.68,43.2842857 231.52,45.2442857 236.44,45.2442857 C238.16,45.2442857 238.88,45.0842857 240.24,44.8442857 L240.24,52.5642857 L243.56,52.5642857 Z M253.68,52.5642857 L260.6,41.6042857 C261.36,40.4042857 262.36,38.6442857 263.12,37.1642857 L263.28,37.1642857 C263.08,39.9642857 262.96,42.3642857 262.96,44.4442857 L262.96,52.5642857 L266.12,52.5642857 L266.12,33.1242857 L262.6,33.1242857 L255.64,44.1242857 C254.88,45.3242857 253.88,47.1242857 253.12,48.5242857 L252.96,48.5242857 C253.16,45.7642857 253.32,43.3242857 253.32,41.2442857 L253.32,33.1242857 L250.12,33.1242857 L250.12,52.5642857 L253.68,52.5642857 Z M280.8,29.6442857 C285.28,29.6442857 286.92,26.6442857 287.08,23.5242857 L284.36,23.5242857 C284.28,25.8042857 283.44,27.6842857 280.8,27.6842857 C278.16,27.6842857 277.32,25.8042857 277.24,23.5242857 L274.52,23.5242857 C274.68,26.6442857 276.32,29.6442857 280.8,29.6442857 Z M276.24,52.5642857 L283.16,41.6042857 C283.92,40.4042857 284.92,38.6442857 285.68,37.1642857 L285.84,37.1642857 C285.64,39.9642857 285.52,42.3642857 285.52,44.4442857 L285.52,52.5642857 L288.68,52.5642857 L288.68,33.1242857 L285.16,33.1242857 L278.2,44.1242857 C277.44,45.3242857 276.44,47.1242857 275.68,48.5242857 L275.52,48.5242857 C275.72,45.7642857 275.88,43.3242857 275.88,41.2442857 L275.88,33.1242857 L272.68,33.1242857 L272.68,52.5642857 L276.24,52.5642857 Z M306.56,52.5642857 L306.56,43.8042857 L310.76,43.8042857 L315.84,52.5642857 L319.44,52.5642857 L313.2,42.3242857 L314.84,38.5242857 C315.84,36.2842857 316.64,35.9642857 317.64,35.9642857 C317.92,35.9642857 318.04,36.0042857 318.28,36.0842857 L318.88,32.9642857 C318.56,32.8042857 318.16,32.7242857 317.72,32.7242857 C315.6,32.7242857 314.12,33.3642857 312.56,36.8042857 L310.64,41.1242857 L306.56,41.1242857 L306.56,33.1242857 L303.28,33.1242857 L303.28,52.5642857 L306.56,52.5642857 Z M327.56,53.0442857 C330,53.0442857 332.12,51.8042857 333.96,50.2442857 L334.08,50.2442857 L334.4,52.5642857 L337.12,52.5642857 L337.12,40.6042857 C337.12,35.8042857 335.08,32.6442857 330.36,32.6442857 C327.24,32.6442857 324.52,33.9642857 322.72,35.1642857 L324,37.4042857 C325.52,36.4042857 327.56,35.4042857 329.8,35.4042857 C332.96,35.4042857 333.76,37.7642857 333.8,40.2042857 C325.48,41.1242857 321.88,43.2042857 321.88,47.5242857 C321.88,51.0442857 324.32,53.0442857 327.56,53.0442857 Z M328.48,50.3242857 C326.6,50.3242857 325.12,49.4842857 325.12,47.3242857 C325.12,44.8042857 327.24,43.3242857 333.8,42.5642857 L333.8,47.8442857 C331.92,49.4842857 330.36,50.3242857 328.48,50.3242857 Z M350.88,52.5642857 L350.88,35.8042857 L357.36,35.8042857 L357.36,33.1242857 L341.04,33.1242857 L341.04,35.8042857 L347.56,35.8042857 L347.56,52.5642857 L350.88,52.5642857 Z M366.16,53.0442857 C368.6,53.0442857 370.72,51.8042857 372.56,50.2442857 L372.68,50.2442857 L373,52.5642857 L375.72,52.5642857 L375.72,40.6042857 C375.72,35.8042857 373.68,32.6442857 368.96,32.6442857 C365.84,32.6442857 363.12,33.9642857 361.32,35.1642857 L362.6,37.4042857 C364.12,36.4042857 366.16,35.4042857 368.4,35.4042857 C371.56,35.4042857 372.36,37.7642857 372.4,40.2042857 C364.08,41.1242857 360.48,43.2042857 360.48,47.5242857 C360.48,51.0442857 362.92,53.0442857 366.16,53.0442857 Z M367.08,50.3242857 C365.2,50.3242857 363.72,49.4842857 363.72,47.3242857 C363.72,44.8042857 365.84,43.3242857 372.4,42.5642857 L372.4,47.8442857 C370.52,49.4842857 368.96,50.3242857 367.08,50.3242857 Z M380.8,52.9242857 C383.64,52.9242857 385.4,50.8042857 385.96,46.5642857 C386.4,43.0042857 386.8,39.4042857 387.24,35.8042857 L393.24,35.8042857 L393.24,52.5642857 L396.56,52.5642857 L396.56,33.1242857 L384.6,33.1242857 C384.12,37.3242857 383.64,41.5242857 383.12,45.7242857 C382.76,48.4842857 381.88,49.7242857 380.52,49.7242857 C380.16,49.7242857 379.88,49.6442857 379.64,49.5642857 L379,52.6042857 C379.56,52.8442857 380.04,52.9242857 380.8,52.9242857 Z M410.68,53.0442857 C415.44,53.0442857 419.72,49.3242857 419.72,42.8842857 C419.72,36.3642857 415.44,32.6442857 410.68,32.6442857 C405.92,32.6442857 401.68,36.3642857 401.68,42.8842857 C401.68,49.3242857 405.92,53.0442857 410.68,53.0442857 Z M410.68,50.2842857 C407.36,50.2842857 405.12,47.3242857 405.12,42.8842857 C405.12,38.4042857 407.36,35.4042857 410.68,35.4042857 C414.04,35.4042857 416.28,38.4042857 416.28,42.8842857 C416.28,47.3242857 414.04,50.2842857 410.68,50.2842857 Z M428.12,52.5642857 L428.12,35.8042857 L436.92,35.8042857 L436.92,33.1242857 L424.8,33.1242857 L424.8,52.5642857 L428.12,52.5642857 Z" id="Рабочийкаталог" fill="#333333" fill-rule="nonzero"></path>
            <g id="folder" transform="translate(0.000000, 0.500000)">
                <path d="M39.1952339,1.36598157 L43.8047661,6.63401843 C44.5643185,7.50207827 45.6616226,8 46.8150729,8 L92,8 C94.209139,8 96,9.790861 96,12 L96,70 L96,70 L4,70 C1.790861,70 2.705415e-16,68.209139 0,66 L0,4 C-2.705415e-16,1.790861 1.790861,4.05812251e-16 4,0 L36.1849271,0 C37.3383774,-5.98504512e-15 38.4356815,0.497921729 39.1952339,1.36598157 Z" id="Path" fill="#FCA65C"></path>
                <path d="M58.1952339,14.3659816 L62.8047661,19.6340184 C63.5643185,20.5020783 64.6616226,21 65.8150729,21 L96.1538462,21 C98.3629852,21 100.153846,22.790861 100.153846,25 L100.153846,70 L100.153846,70 L12,70 C9.790861,70 8,68.209139 8,66 L8,17 C8,14.790861 9.790861,13 12,13 L55.1849271,13 C56.3383774,13 57.4356815,13.4979217 58.1952339,14.3659816 Z" id="Path" fill="#73B0DE" transform="translate(54.076923, 41.500000) scale(-1, 1) translate(-54.076923, -41.500000) "></path>
                <path d="M9,58 L9,70 L4,70 L4.19964034,69.9951047 C6.31603153,69.8910789 8,68.1421954 8,66 L8,66 L8,58 L9,58 Z" id="Combined-Shape" fill="#73B0DE"></path>
                <g id="folder-icon" transform="translate(37.000000, 29.000000)" opacity="0.498126">
                    <g id="Path">
                        <use fill="#4F93C7" fill-rule="evenodd" xlink:href="#path-1"></use>
                        <use fill="black" fill-opacity="1" filter="url(#filter-2)" xlink:href="#path-1"></use>
                    </g>
                </g>
            </g>
        </g>
        <g id="trees-icon-label" transform="translate(575.000000, 233.000000)">
            <path d="M150.96,53.0442857 C153.28,53.0442857 155.48,52.1642857 157.24,50.5642857 L155.8,48.4442857 C154.64,49.4842857 153.04,50.2842857 151.24,50.2842857 C147.68,50.2842857 145.28,47.3242857 145.28,42.8842857 C145.28,38.4042857 147.84,35.4042857 151.36,35.4042857 C152.92,35.4042857 154.16,36.0042857 155.24,37.0042857 L156.88,34.9242857 C155.52,33.6442857 153.76,32.6442857 151.2,32.6442857 C146.2,32.6442857 141.84,36.3642857 141.84,42.8842857 C141.84,49.3242857 145.8,53.0442857 150.96,53.0442857 Z M167.2,53.0442857 C169.88,53.0442857 171.8,51.6442857 173.6,49.5242857 L173.72,49.5242857 L174,52.5642857 L176.72,52.5642857 L176.72,33.1242857 L173.4,33.1242857 L173.4,46.8842857 C171.6,49.1642857 170.2,50.1642857 168.24,50.1642857 C165.68,50.1642857 164.56,48.6042857 164.56,45.0042857 L164.56,33.1242857 L161.24,33.1242857 L161.24,45.4442857 C161.24,50.4042857 163.08,53.0442857 167.2,53.0442857 Z M188.36,53.0442857 C192.96,53.0442857 195.48,50.4042857 195.48,47.2442857 C195.48,43.7242857 192.56,42.4042857 189.52,41.3242857 C187.08,40.4842857 185.4,39.7642857 185.4,38.0042857 C185.4,36.5642857 186.48,35.2042857 188.96,35.2042857 C190.68,35.2042857 192.08,35.7642857 193.44,36.7642857 L194.96,34.8442857 C193.44,33.5642857 191.36,32.6442857 188.92,32.6442857 C184.68,32.6442857 182.2,35.0442857 182.2,38.1642857 C182.2,41.3642857 185,42.7642857 187.92,43.8042857 L188.358839,43.9651509 C190.3984,44.7214413 192.28,45.577619 192.28,47.4442857 C192.28,49.1242857 191.04,50.4442857 188.48,50.4442857 C186.08,50.4442857 184.32,49.7242857 182.64,48.3242857 L181.12,50.2442857 C182.92,52.0042857 185.52,53.0442857 188.36,53.0442857 Z M206.16,53.0442857 C207.48,53.0442857 208.8,52.6842857 209.84,52.2042857 L209.16,49.8442857 C208.36,50.2042857 207.64,50.3242857 206.92,50.3242857 C204.72,50.3242857 203.92,48.9642857 203.92,46.6042857 L203.92,35.8042857 L209.2,35.8042857 L209.2,33.1242857 L203.92,33.1242857 L203.92,26.8842857 L201.16,26.8842857 L200.76,33.1242857 L197.72,33.3242857 L197.72,35.8042857 L200.6,35.8042857 L200.6,46.5242857 C200.6,50.4042857 202,53.0442857 206.16,53.0442857 Z M221.16,53.0442857 C225.92,53.0442857 230.2,49.3242857 230.2,42.8842857 C230.2,36.3642857 225.92,32.6442857 221.16,32.6442857 C216.4,32.6442857 212.16,36.3642857 212.16,42.8842857 C212.16,49.3242857 216.4,53.0442857 221.16,53.0442857 Z M221.16,50.2842857 C217.84,50.2842857 215.6,47.3242857 215.6,42.8842857 C215.6,38.4042857 217.84,35.4042857 221.16,35.4042857 C224.52,35.4042857 226.76,38.4042857 226.76,42.8842857 C226.76,47.3242857 224.52,50.2842857 221.16,50.2842857 Z M238.6,52.5642857 L238.6,38.4842857 C240.4,36.4842857 242,35.5242857 243.44,35.5242857 C245.92,35.5242857 247.04,37.0442857 247.04,40.6842857 L247.04,52.5642857 L250.36,52.5642857 L250.36,38.4842857 C252.16,36.4842857 253.72,35.5242857 255.24,35.5242857 C257.68,35.5242857 258.84,37.0442857 258.84,40.6842857 L258.84,52.5642857 L262.16,52.5642857 L262.16,40.2442857 C262.16,35.2842857 260.24,32.6442857 256.24,32.6442857 C253.88,32.6442857 251.84,34.1642857 249.84,36.3242857 C249.04,34.0442857 247.44,32.6442857 244.44,32.6442857 C242.12,32.6442857 240.12,34.0842857 238.4,35.9242857 L238.28,35.9242857 L238,33.1242857 L235.28,33.1242857 L235.28,52.5642857 L238.6,52.5642857 Z M276.28,53.0442857 C278.96,53.0442857 281.04,52.2442857 282.72,51.0442857 L281.56,48.9242857 C280.2,49.8442857 278.56,50.3642857 276.68,50.3642857 C273,50.3642857 270.56,47.7242857 270.28,43.7242857 L283.36,43.7242857 C283.48,43.0842857 283.52,42.4842857 283.52,41.7642857 C283.52,36.1642857 280.68,32.6442857 275.72,32.6442857 C271.28,32.6442857 267,36.5242857 267,42.8442857 C267,49.2842857 271.08,53.0442857 276.28,53.0442857 Z M280.56,41.1642857 L270.28,41.1642857 C270.68,37.4442857 273.08,35.2842857 275.8,35.2842857 C278.76,35.2842857 280.56,37.3242857 280.56,41.1642857 Z M291.6,52.5642857 L291.6,40.0842857 C292.92,36.8042857 294.88,35.6442857 296.52,35.6442857 C297.28,35.6442857 297.72,35.7242857 298.28,35.8842857 L299,33.0442857 C298.4,32.7642857 297.8,32.6442857 296.92,32.6442857 C294.76,32.6442857 292.76,34.2042857 291.4,36.6442857 L291.28,36.6442857 L291,33.1242857 L288.28,33.1242857 L288.28,52.5642857 L291.6,52.5642857 Z M318.44,57.6042857 L318.44,55.4042857 L299.4,55.4042857 L299.4,57.6042857 L318.44,57.6042857 Z M323.88,29.1242857 C325.16,29.1242857 326.08,28.2842857 326.08,26.9642857 C326.08,25.6842857 325.16,24.8042857 323.88,24.8042857 C322.6,24.8042857 321.68,25.6842857 321.68,26.9642857 C321.68,28.2842857 322.6,29.1242857 323.88,29.1242857 Z M325.52,52.5642857 L325.52,33.1242857 L322.2,33.1242857 L322.2,52.5642857 L325.52,52.5642857 Z M335.4,52.5642857 L335.4,38.4842857 C337.32,36.5242857 338.72,35.5242857 340.68,35.5242857 C343.24,35.5242857 344.36,37.0442857 344.36,40.6842857 L344.36,52.5642857 L347.68,52.5642857 L347.68,40.2442857 C347.68,35.2842857 345.84,32.6442857 341.72,32.6442857 C339.04,32.6442857 337.04,34.0842857 335.2,35.9242857 L335.08,35.9242857 L334.8,33.1242857 L332.08,33.1242857 L332.08,52.5642857 L335.4,52.5642857 Z M360.08,53.0442857 C361.4,53.0442857 362.72,52.6842857 363.76,52.2042857 L363.08,49.8442857 C362.28,50.2042857 361.56,50.3242857 360.84,50.3242857 C358.64,50.3242857 357.84,48.9642857 357.84,46.6042857 L357.84,35.8042857 L363.12,35.8042857 L363.12,33.1242857 L357.84,33.1242857 L357.84,26.8842857 L355.08,26.8842857 L354.68,33.1242857 L351.64,33.3242857 L351.64,35.8042857 L354.52,35.8042857 L354.52,46.5242857 C354.52,50.4042857 355.92,53.0442857 360.08,53.0442857 Z M375.36,53.0442857 C378.04,53.0442857 380.12,52.2442857 381.8,51.0442857 L380.64,48.9242857 C379.28,49.8442857 377.64,50.3642857 375.76,50.3642857 C372.08,50.3642857 369.64,47.7242857 369.36,43.7242857 L382.44,43.7242857 C382.56,43.0842857 382.6,42.4842857 382.6,41.7642857 C382.6,36.1642857 379.76,32.6442857 374.8,32.6442857 C370.36,32.6442857 366.08,36.5242857 366.08,42.8442857 C366.08,49.2842857 370.16,53.0442857 375.36,53.0442857 Z M379.64,41.1642857 L369.36,41.1642857 C369.76,37.4442857 372.16,35.2842857 374.88,35.2842857 C377.84,35.2842857 379.64,37.3242857 379.64,41.1642857 Z M390.84,53.0442857 C391.68,53.0442857 392.28,52.9242857 392.76,52.6842857 L392.32,50.2042857 C392,50.2842857 391.84,50.2842857 391.64,50.2842857 C391.12,50.2842857 390.68,49.9242857 390.68,48.8842857 L390.68,24.0842857 L387.36,24.0842857 L387.36,48.6442857 C387.36,51.4442857 388.36,53.0442857 390.84,53.0442857 Z M401.04,53.0442857 C401.88,53.0442857 402.48,52.9242857 402.96,52.6842857 L402.52,50.2042857 C402.2,50.2842857 402.04,50.2842857 401.84,50.2842857 C401.32,50.2842857 400.88,49.9242857 400.88,48.8842857 L400.88,24.0842857 L397.56,24.0842857 L397.56,48.6442857 C397.56,51.4442857 398.56,53.0442857 401.04,53.0442857 Z M409.44,29.1242857 C410.72,29.1242857 411.64,28.2842857 411.64,26.9642857 C411.64,25.6842857 410.72,24.8042857 409.44,24.8042857 C408.16,24.8042857 407.24,25.6842857 407.24,26.9642857 C407.24,28.2842857 408.16,29.1242857 409.44,29.1242857 Z M411.08,52.5642857 L411.08,33.1242857 L407.76,33.1242857 L407.76,52.5642857 L411.08,52.5642857 Z M424.2,61.5242857 C430.24,61.5242857 434.04,58.4042857 434.04,54.7642857 C434.04,51.5642857 431.76,50.1242857 427.24,50.1242857 L423.48,50.1242857 C420.88,50.1242857 420.08,49.2442857 420.08,48.0442857 C420.08,46.9642857 420.6,46.3242857 421.32,45.7242857 C422.2,46.1642857 423.24,46.4042857 424.2,46.4042857 C428.16,46.4042857 431.32,43.8042857 431.32,39.6442857 C431.32,38.0042857 430.68,36.5642857 429.76,35.6842857 L433.72,35.6842857 L433.72,33.1242857 L426.96,33.1242857 C426.24,32.8442857 425.28,32.6442857 424.2,32.6442857 C420.24,32.6442857 416.88,35.3242857 416.88,39.5642857 C416.88,41.8842857 418.12,43.7642857 419.4,44.8042857 L419.4,44.9642857 C418.4,45.6442857 417.28,46.9242857 417.28,48.5642857 C417.28,50.0842857 418.04,51.1242857 419,51.7242857 L419,51.8842857 C417.24,53.0842857 416.16,54.6442857 416.16,56.2842857 C416.16,59.6442857 419.44,61.5242857 424.2,61.5242857 Z M424.2,44.1642857 C421.96,44.1642857 420.08,42.4042857 420.08,39.5642857 C420.08,36.7242857 421.92,35.0442857 424.2,35.0442857 C426.48,35.0442857 428.32,36.7642857 428.32,39.5642857 C428.32,42.4042857 426.44,44.1642857 424.2,44.1642857 Z M424.68,59.2042857 C421.16,59.2042857 419.04,57.9242857 419.04,55.8442857 C419.04,54.7242857 419.64,53.5642857 421.04,52.5642857 C421.88,52.8042857 422.8,52.8842857 423.56,52.8842857 L426.88,52.8842857 C429.44,52.8842857 430.8,53.4842857 430.8,55.2842857 C430.8,57.2842857 428.36,59.2042857 424.68,59.2042857 Z M445.68,53.0442857 C448.36,53.0442857 450.44,52.2442857 452.12,51.0442857 L450.96,48.9242857 C449.6,49.8442857 447.96,50.3642857 446.08,50.3642857 C442.4,50.3642857 439.96,47.7242857 439.68,43.7242857 L452.76,43.7242857 C452.88,43.0842857 452.92,42.4842857 452.92,41.7642857 C452.92,36.1642857 450.08,32.6442857 445.12,32.6442857 C440.68,32.6442857 436.4,36.5242857 436.4,42.8442857 C436.4,49.2842857 440.48,53.0442857 445.68,53.0442857 Z M449.96,41.1642857 L439.68,41.1642857 C440.08,37.4442857 442.48,35.2842857 445.2,35.2842857 C448.16,35.2842857 449.96,37.3242857 449.96,41.1642857 Z M461,52.5642857 L461,38.4842857 C462.92,36.5242857 464.32,35.5242857 466.28,35.5242857 C468.84,35.5242857 469.96,37.0442857 469.96,40.6842857 L469.96,52.5642857 L473.28,52.5642857 L473.28,40.2442857 C473.28,35.2842857 471.44,32.6442857 467.32,32.6442857 C464.64,32.6442857 462.64,34.0842857 460.8,35.9242857 L460.68,35.9242857 L460.4,33.1242857 L457.68,33.1242857 L457.68,52.5642857 L461,52.5642857 Z M487.24,53.0442857 C489.56,53.0442857 491.76,52.1642857 493.52,50.5642857 L492.08,48.4442857 C490.92,49.4842857 489.32,50.2842857 487.52,50.2842857 C483.96,50.2842857 481.56,47.3242857 481.56,42.8842857 C481.56,38.4042857 484.12,35.4042857 487.64,35.4042857 C489.2,35.4042857 490.44,36.0042857 491.52,37.0042857 L493.16,34.9242857 C491.8,33.6442857 490.04,32.6442857 487.48,32.6442857 C482.48,32.6442857 478.12,36.3642857 478.12,42.8842857 C478.12,49.3242857 482.08,53.0442857 487.24,53.0442857 Z M505.64,53.0442857 C508.32,53.0442857 510.4,52.2442857 512.08,51.0442857 L510.92,48.9242857 C509.56,49.8442857 507.92,50.3642857 506.04,50.3642857 C502.36,50.3642857 499.92,47.7242857 499.64,43.7242857 L512.72,43.7242857 C512.84,43.0842857 512.88,42.4842857 512.88,41.7642857 C512.88,36.1642857 510.04,32.6442857 505.08,32.6442857 C500.64,32.6442857 496.36,36.5242857 496.36,42.8442857 C496.36,49.2842857 500.44,53.0442857 505.64,53.0442857 Z M509.92,41.1642857 L499.64,41.1642857 C500.04,37.4442857 502.44,35.2842857 505.16,35.2842857 C508.12,35.2842857 509.92,37.3242857 509.92,41.1642857 Z M533.88,57.6042857 L533.88,55.4042857 L514.84,55.4042857 L514.84,57.6042857 L533.88,57.6042857 Z M540.96,60.7642857 L540.96,54.2042857 L540.88,50.8042857 C542.64,52.2042857 544.48,53.0442857 546.24,53.0442857 C550.68,53.0442857 554.68,49.1642857 554.68,42.5642857 C554.68,36.5242857 551.96,32.6442857 546.96,32.6442857 C544.72,32.6442857 542.52,33.8842857 540.76,35.3642857 L540.64,35.3642857 L540.36,33.1242857 L537.64,33.1242857 L537.64,60.7642857 L540.96,60.7642857 Z M545.68,50.2442857 C544.4,50.2442857 542.72,49.7242857 540.96,48.2442857 L540.96,38.0842857 C542.84,36.3242857 544.48,35.4442857 546.12,35.4442857 C549.76,35.4442857 551.24,38.2842857 551.24,42.5642857 C551.24,47.3642857 548.88,50.2442857 545.68,50.2442857 Z M564.32,53.0442857 C566.76,53.0442857 568.88,51.8042857 570.72,50.2442857 L570.84,50.2442857 L571.16,52.5642857 L573.88,52.5642857 L573.88,40.6042857 C573.88,35.8042857 571.84,32.6442857 567.12,32.6442857 C564,32.6442857 561.28,33.9642857 559.48,35.1642857 L560.76,37.4042857 C562.28,36.4042857 564.32,35.4042857 566.56,35.4042857 C569.72,35.4042857 570.52,37.7642857 570.56,40.2042857 C562.24,41.1242857 558.64,43.2042857 558.64,47.5242857 C558.64,51.0442857 561.08,53.0442857 564.32,53.0442857 Z M565.24,50.3242857 C563.36,50.3242857 561.88,49.4842857 561.88,47.3242857 C561.88,44.8042857 564,43.3242857 570.56,42.5642857 L570.56,47.8442857 C568.68,49.4842857 567.12,50.3242857 565.24,50.3242857 Z M587.68,53.0442857 C590,53.0442857 592.2,52.1642857 593.96,50.5642857 L592.52,48.4442857 C591.36,49.4842857 589.76,50.2842857 587.96,50.2842857 C584.4,50.2842857 582,47.3242857 582,42.8842857 C582,38.4042857 584.56,35.4042857 588.08,35.4042857 C589.64,35.4042857 590.88,36.0042857 591.96,37.0042857 L593.6,34.9242857 C592.24,33.6442857 590.48,32.6442857 587.92,32.6442857 C582.92,32.6442857 578.56,36.3642857 578.56,42.8842857 C578.56,49.3242857 582.52,53.0442857 587.68,53.0442857 Z M601.52,52.5642857 L601.52,47.4442857 L605.12,43.2442857 L610.8,52.5642857 L614.4,52.5642857 L607.08,40.9642857 L613.56,33.1242857 L609.84,33.1242857 L601.64,43.2842857 L601.52,43.2842857 L601.52,24.0842857 L598.24,24.0842857 L598.24,52.5642857 L601.52,52.5642857 Z" id="customer_intelligence_pack" fill="#333333" fill-rule="nonzero"></path>
            <g id="folder" transform="translate(0.000000, 0.500000)">
                <path d="M39.1952339,1.36598157 L43.8047661,6.63401843 C44.5643185,7.50207827 45.6616226,8 46.8150729,8 L92,8 C94.209139,8 96,9.790861 96,12 L96,70 L96,70 L4,70 C1.790861,70 2.705415e-16,68.209139 0,66 L0,4 C-2.705415e-16,1.790861 1.790861,4.05812251e-16 4,0 L36.1849271,0 C37.3383774,-5.98504512e-15 38.4356815,0.497921729 39.1952339,1.36598157 Z" id="Path" fill="#FCA65C"></path>
                <path d="M58.1952339,14.3659816 L62.8047661,19.6340184 C63.5643185,20.5020783 64.6616226,21 65.8150729,21 L96.1538462,21 C98.3629852,21 100.153846,22.790861 100.153846,25 L100.153846,70 L100.153846,70 L12,70 C9.790861,70 8,68.209139 8,66 L8,17 C8,14.790861 9.790861,13 12,13 L55.1849271,13 C56.3383774,13 57.4356815,13.4979217 58.1952339,14.3659816 Z" id="Path" fill="#73B0DE" transform="translate(54.076923, 41.500000) scale(-1, 1) translate(-54.076923, -41.500000) "></path>
                <path d="M9,58 L9,70 L4,70 L4.19964034,69.9951047 C6.31603153,69.8910789 8,68.1421954 8,66 L8,66 L8,58 L9,58 Z" id="Combined-Shape" fill="#73B0DE"></path>
            </g>
        </g>
        <g id="trees-icon-label" transform="translate(737.000000, 364.000000)">
            <path d="M148.36,53.0442857 C152.96,53.0442857 155.48,50.4042857 155.48,47.2442857 C155.48,43.7242857 152.56,42.4042857 149.52,41.3242857 C147.08,40.4842857 145.4,39.7642857 145.4,38.0042857 C145.4,36.5642857 146.48,35.2042857 148.96,35.2042857 C150.68,35.2042857 152.08,35.7642857 153.44,36.7642857 L154.96,34.8442857 C153.44,33.5642857 151.36,32.6442857 148.92,32.6442857 C144.68,32.6442857 142.2,35.0442857 142.2,38.1642857 C142.2,41.3642857 145,42.7642857 147.92,43.8042857 L148.358839,43.9651509 C150.3984,44.7214413 152.28,45.577619 152.28,47.4442857 C152.28,49.1242857 151.04,50.4442857 148.48,50.4442857 C146.08,50.4442857 144.32,49.7242857 142.64,48.3242857 L141.12,50.2442857 C142.92,52.0042857 145.52,53.0442857 148.36,53.0442857 Z M161.72,29.1242857 C163,29.1242857 163.92,28.2842857 163.92,26.9642857 C163.92,25.6842857 163,24.8042857 161.72,24.8042857 C160.44,24.8042857 159.52,25.6842857 159.52,26.9642857 C159.52,28.2842857 160.44,29.1242857 161.72,29.1242857 Z M163.36,52.5642857 L163.36,33.1242857 L160.04,33.1242857 L160.04,52.5642857 L163.36,52.5642857 Z M173.24,52.5642857 L173.24,38.4842857 C175.16,36.5242857 176.56,35.5242857 178.52,35.5242857 C181.08,35.5242857 182.2,37.0442857 182.2,40.6842857 L182.2,52.5642857 L185.52,52.5642857 L185.52,40.2442857 C185.52,35.2842857 183.68,32.6442857 179.56,32.6442857 C176.88,32.6442857 174.88,34.0842857 173.04,35.9242857 L172.92,35.9242857 L172.64,33.1242857 L169.92,33.1242857 L169.92,52.5642857 L173.24,52.5642857 Z M198.36,61.5242857 C204.4,61.5242857 208.2,58.4042857 208.2,54.7642857 C208.2,51.5642857 205.92,50.1242857 201.4,50.1242857 L197.64,50.1242857 C195.04,50.1242857 194.24,49.2442857 194.24,48.0442857 C194.24,46.9642857 194.76,46.3242857 195.48,45.7242857 C196.36,46.1642857 197.4,46.4042857 198.36,46.4042857 C202.32,46.4042857 205.48,43.8042857 205.48,39.6442857 C205.48,38.0042857 204.84,36.5642857 203.92,35.6842857 L207.88,35.6842857 L207.88,33.1242857 L201.12,33.1242857 C200.4,32.8442857 199.44,32.6442857 198.36,32.6442857 C194.4,32.6442857 191.04,35.3242857 191.04,39.5642857 C191.04,41.8842857 192.28,43.7642857 193.56,44.8042857 L193.56,44.9642857 C192.56,45.6442857 191.44,46.9242857 191.44,48.5642857 C191.44,50.0842857 192.2,51.1242857 193.16,51.7242857 L193.16,51.8842857 C191.4,53.0842857 190.32,54.6442857 190.32,56.2842857 C190.32,59.6442857 193.6,61.5242857 198.36,61.5242857 Z M198.36,44.1642857 C196.12,44.1642857 194.24,42.4042857 194.24,39.5642857 C194.24,36.7242857 196.08,35.0442857 198.36,35.0442857 C200.64,35.0442857 202.48,36.7642857 202.48,39.5642857 C202.48,42.4042857 200.6,44.1642857 198.36,44.1642857 Z M198.84,59.2042857 C195.32,59.2042857 193.2,57.9242857 193.2,55.8442857 C193.2,54.7242857 193.8,53.5642857 195.2,52.5642857 C196.04,52.8042857 196.96,52.8842857 197.72,52.8842857 L201.04,52.8842857 C203.6,52.8842857 204.96,53.4842857 204.96,55.2842857 C204.96,57.2842857 202.52,59.2042857 198.84,59.2042857 Z M215.48,53.0442857 C216.32,53.0442857 216.92,52.9242857 217.4,52.6842857 L216.96,50.2042857 C216.64,50.2842857 216.48,50.2842857 216.28,50.2842857 C215.76,50.2842857 215.32,49.9242857 215.32,48.8842857 L215.32,24.0842857 L212,24.0842857 L212,48.6442857 C212,51.4442857 213,53.0442857 215.48,53.0442857 Z M230.04,53.0442857 C232.72,53.0442857 234.8,52.2442857 236.48,51.0442857 L235.32,48.9242857 C233.96,49.8442857 232.32,50.3642857 230.44,50.3642857 C226.76,50.3642857 224.32,47.7242857 224.04,43.7242857 L237.12,43.7242857 C237.24,43.0842857 237.28,42.4842857 237.28,41.7642857 C237.28,36.1642857 234.44,32.6442857 229.48,32.6442857 C225.04,32.6442857 220.76,36.5242857 220.76,42.8442857 C220.76,49.2842857 224.84,53.0442857 230.04,53.0442857 Z M234.32,41.1642857 L224.04,41.1642857 C224.44,37.4442857 226.84,35.2842857 229.56,35.2842857 C232.52,35.2842857 234.32,37.3242857 234.32,41.1642857 Z M258.28,57.6042857 L258.28,55.4042857 L239.24,55.4042857 L239.24,57.6042857 L258.28,57.6042857 Z M270.12,52.5642857 L277,33.1242857 L273.72,33.1242857 L270.08,44.1242857 C269.48,46.0442857 268.84,48.0042857 268.28,49.8842857 L268.12,49.8842857 C267.52,48.0042857 266.92,46.0442857 266.32,44.1242857 L262.68,33.1242857 L259.24,33.1242857 L266.24,52.5642857 L270.12,52.5642857 Z M282.44,29.1242857 C283.72,29.1242857 284.64,28.2842857 284.64,26.9642857 C284.64,25.6842857 283.72,24.8042857 282.44,24.8042857 C281.16,24.8042857 280.24,25.6842857 280.24,26.9642857 C280.24,28.2842857 281.16,29.1242857 282.44,29.1242857 Z M284.08,52.5642857 L284.08,33.1242857 L280.76,33.1242857 L280.76,52.5642857 L284.08,52.5642857 Z M298.48,53.0442857 C301.16,53.0442857 303.24,52.2442857 304.92,51.0442857 L303.76,48.9242857 C302.4,49.8442857 300.76,50.3642857 298.88,50.3642857 C295.2,50.3642857 292.76,47.7242857 292.48,43.7242857 L305.56,43.7242857 C305.68,43.0842857 305.72,42.4842857 305.72,41.7642857 C305.72,36.1642857 302.88,32.6442857 297.92,32.6442857 C293.48,32.6442857 289.2,36.5242857 289.2,42.8442857 C289.2,49.2842857 293.28,53.0442857 298.48,53.0442857 Z M302.76,41.1642857 L292.48,41.1642857 C292.88,37.4442857 295.28,35.2842857 298,35.2842857 C300.96,35.2842857 302.76,37.3242857 302.76,41.1642857 Z M317.6,52.5642857 L320.2,42.1242857 C320.72,40.3642857 321.08,38.6442857 321.44,36.3642857 L321.6,36.3642857 C322.04,38.6442857 322.4,40.3242857 322.88,42.1242857 L325.52,52.5642857 L329.72,52.5642857 L334.96,33.1242857 L331.8,33.1242857 L328.96,44.4042857 C328.52,46.1642857 328.2,47.8442857 327.8,49.9242857 L327.64,49.9242857 C327.24,47.8442857 326.8,46.1642857 326.36,44.4042857 L323.4,33.1242857 L319.84,33.1242857 L316.92,44.4042857 C316.48,46.1642857 316.12,47.8442857 315.72,49.9242857 L315.56,49.9242857 C315.24,47.8442857 314.84,46.1642857 314.4,44.4042857 L311.56,33.1242857 L308.16,33.1242857 L313.6,52.5642857 L317.6,52.5642857 Z M355.44,57.6042857 L355.44,55.4042857 L336.4,55.4042857 L336.4,57.6042857 L355.44,57.6042857 Z M362.48,52.5642857 L362.48,47.4442857 L366.08,43.2442857 L371.76,52.5642857 L375.36,52.5642857 L368.04,40.9642857 L374.52,33.1242857 L370.8,33.1242857 L362.6,43.2842857 L362.48,43.2842857 L362.48,24.0842857 L359.2,24.0842857 L359.2,52.5642857 L362.48,52.5642857 Z M380.68,29.1242857 C381.96,29.1242857 382.88,28.2842857 382.88,26.9642857 C382.88,25.6842857 381.96,24.8042857 380.68,24.8042857 C379.4,24.8042857 378.48,25.6842857 378.48,26.9642857 C378.48,28.2842857 379.4,29.1242857 380.68,29.1242857 Z M382.32,52.5642857 L382.32,33.1242857 L379,33.1242857 L379,52.5642857 L382.32,52.5642857 Z M395,53.0442857 C396.32,53.0442857 397.64,52.6842857 398.68,52.2042857 L398,49.8442857 C397.2,50.2042857 396.48,50.3242857 395.76,50.3242857 C393.56,50.3242857 392.76,48.9642857 392.76,46.6042857 L392.76,35.8042857 L398.04,35.8042857 L398.04,33.1242857 L392.76,33.1242857 L392.76,26.8842857 L390,26.8842857 L389.6,33.1242857 L386.56,33.3242857 L386.56,35.8042857 L389.44,35.8042857 L389.44,46.5242857 C389.44,50.4042857 390.84,53.0442857 395,53.0442857 Z" id="single_view_kit" fill="#333333" fill-rule="nonzero"></path>
            <g id="folder" transform="translate(0.000000, 0.500000)">
                <path d="M39.1952339,1.36598157 L43.8047661,6.63401843 C44.5643185,7.50207827 45.6616226,8 46.8150729,8 L92,8 C94.209139,8 96,9.790861 96,12 L96,70 L96,70 L4,70 C1.790861,70 2.705415e-16,68.209139 0,66 L0,4 C-2.705415e-16,1.790861 1.790861,4.05812251e-16 4,0 L36.1849271,0 C37.3383774,-5.98504512e-15 38.4356815,0.497921729 39.1952339,1.36598157 Z" id="Path" fill="#FCA65C"></path>
                <path d="M58.1952339,14.3659816 L62.8047661,19.6340184 C63.5643185,20.5020783 64.6616226,21 65.8150729,21 L96.1538462,21 C98.3629852,21 100.153846,22.790861 100.153846,25 L100.153846,70 L100.153846,70 L12,70 C9.790861,70 8,68.209139 8,66 L8,17 C8,14.790861 9.790861,13 12,13 L55.1849271,13 C56.3383774,13 57.4356815,13.4979217 58.1952339,14.3659816 Z" id="Path" fill="#73B0DE" transform="translate(54.076923, 41.500000) scale(-1, 1) translate(-54.076923, -41.500000) "></path>
                <path d="M9,58 L9,70 L4,70 L4.19964034,69.9951047 C6.31603153,69.8910789 8,68.1421954 8,66 L8,66 L8,58 L9,58 Z" id="Combined-Shape" fill="#73B0DE"></path>
            </g>
        </g>
        <g id="trees-icon-label" transform="translate(899.000000, 495.000000)">
            <path d="M130.76,52.48 C131.6,52.48 132.2,52.36 132.68,52.12 L132.24,49.64 C131.92,49.72 131.76,49.72 131.56,49.72 C131.04,49.72 130.6,49.36 130.6,48.32 L130.6,23.52 L127.28,23.52 L127.28,48.08 C127.28,50.88 128.28,52.48 130.76,52.48 Z M145.04,52.48 C149.8,52.48 154.08,48.76 154.08,42.32 C154.08,35.8 149.8,32.08 145.04,32.08 C140.28,32.08 136.04,35.8 136.04,42.32 C136.04,48.76 140.28,52.48 145.04,52.48 Z M145.04,49.72 C141.72,49.72 139.48,46.76 139.48,42.32 C139.48,37.84 141.72,34.84 145.04,34.84 C148.4,34.84 150.64,37.84 150.64,42.32 C150.64,46.76 148.4,49.72 145.04,49.72 Z M165.72,60.96 C171.76,60.96 175.56,57.84 175.56,54.2 C175.56,51 173.28,49.56 168.76,49.56 L165,49.56 C162.4,49.56 161.6,48.68 161.6,47.48 C161.6,46.4 162.12,45.76 162.84,45.16 C163.72,45.6 164.76,45.84 165.72,45.84 C169.68,45.84 172.84,43.24 172.84,39.08 C172.84,37.44 172.2,36 171.28,35.12 L175.24,35.12 L175.24,32.56 L168.48,32.56 C167.76,32.28 166.8,32.08 165.72,32.08 C161.76,32.08 158.4,34.76 158.4,39 C158.4,41.32 159.64,43.2 160.92,44.24 L160.92,44.4 C159.92,45.08 158.8,46.36 158.8,48 C158.8,49.52 159.56,50.56 160.52,51.16 L160.52,51.32 C158.76,52.52 157.68,54.08 157.68,55.72 C157.68,59.08 160.96,60.96 165.72,60.96 Z M165.72,43.6 C163.48,43.6 161.6,41.84 161.6,39 C161.6,36.16 163.44,34.48 165.72,34.48 C168,34.48 169.84,36.2 169.84,39 C169.84,41.84 167.96,43.6 165.72,43.6 Z M166.2,58.64 C162.68,58.64 160.56,57.36 160.56,55.28 C160.56,54.16 161.16,53 162.56,52 C163.4,52.24 164.32,52.32 165.08,52.32 L168.4,52.32 C170.96,52.32 172.32,52.92 172.32,54.72 C172.32,56.72 169.88,58.64 166.2,58.64 Z M181.04,28.56 C182.32,28.56 183.24,27.72 183.24,26.4 C183.24,25.12 182.32,24.24 181.04,24.24 C179.76,24.24 178.84,25.12 178.84,26.4 C178.84,27.72 179.76,28.56 181.04,28.56 Z M182.68,52 L182.68,32.56 L179.36,32.56 L179.36,52 L182.68,52 Z M192.56,52 L192.56,37.92 C194.48,35.96 195.88,34.96 197.84,34.96 C200.4,34.96 201.52,36.48 201.52,40.12 L201.52,52 L204.84,52 L204.84,39.68 C204.84,34.72 203,32.08 198.88,32.08 C196.2,32.08 194.2,33.52 192.36,35.36 L192.24,35.36 L191.96,32.56 L189.24,32.56 L189.24,52 L192.56,52 Z M218.68,52.48 C223.44,52.48 227.72,48.76 227.72,42.32 C227.72,35.8 223.44,32.08 218.68,32.08 C213.92,32.08 209.68,35.8 209.68,42.32 C209.68,48.76 213.92,52.48 218.68,52.48 Z M218.68,49.72 C215.36,49.72 213.12,46.76 213.12,42.32 C213.12,37.84 215.36,34.84 218.68,34.84 C222.04,34.84 224.28,37.84 224.28,42.32 C224.28,46.76 222.04,49.72 218.68,49.72 Z M236.12,52 L236.12,37.92 C237.92,35.92 239.52,34.96 240.96,34.96 C243.44,34.96 244.56,36.48 244.56,40.12 L244.56,52 L247.88,52 L247.88,37.92 C249.68,35.92 251.24,34.96 252.76,34.96 C255.2,34.96 256.36,36.48 256.36,40.12 L256.36,52 L259.68,52 L259.68,39.68 C259.68,34.72 257.76,32.08 253.76,32.08 C251.4,32.08 249.36,33.6 247.36,35.76 C246.56,33.48 244.96,32.08 241.96,32.08 C239.64,32.08 237.64,33.52 235.92,35.36 L235.8,35.36 L235.52,32.56 L232.8,32.56 L232.8,52 L236.12,52 Z M282.2,57.04 L282.2,54.84 L263.16,54.84 L263.16,57.04 L282.2,57.04 Z M291.04,52.48 C295.64,52.48 298.16,49.84 298.16,46.68 C298.16,43.16 295.24,41.84 292.2,40.76 C289.76,39.92 288.08,39.2 288.08,37.44 C288.08,36 289.16,34.64 291.64,34.64 C293.36,34.64 294.76,35.2 296.12,36.2 L297.64,34.28 C296.12,33 294.04,32.08 291.6,32.08 C287.36,32.08 284.88,34.48 284.88,37.6 C284.88,40.8 287.68,42.2 290.6,43.24 L291.038839,43.4008652 C293.0784,44.1571556 294.96,45.0133333 294.96,46.88 C294.96,48.56 293.72,49.88 291.16,49.88 C288.76,49.88 287,49.16 285.32,47.76 L283.8,49.68 C285.6,51.44 288.2,52.48 291.04,52.48 Z M304.4,28.56 C305.68,28.56 306.6,27.72 306.6,26.4 C306.6,25.12 305.68,24.24 304.4,24.24 C303.12,24.24 302.2,25.12 302.2,26.4 C302.2,27.72 303.12,28.56 304.4,28.56 Z M306.04,52 L306.04,32.56 L302.72,32.56 L302.72,52 L306.04,52 Z M315.92,52 L315.92,37.92 C317.84,35.96 319.24,34.96 321.2,34.96 C323.76,34.96 324.88,36.48 324.88,40.12 L324.88,52 L328.2,52 L328.2,39.68 C328.2,34.72 326.36,32.08 322.24,32.08 C319.56,32.08 317.56,33.52 315.72,35.36 L315.6,35.36 L315.32,32.56 L312.6,32.56 L312.6,52 L315.92,52 Z M341.04,60.96 C347.08,60.96 350.88,57.84 350.88,54.2 C350.88,51 348.6,49.56 344.08,49.56 L340.32,49.56 C337.72,49.56 336.92,48.68 336.92,47.48 C336.92,46.4 337.44,45.76 338.16,45.16 C339.04,45.6 340.08,45.84 341.04,45.84 C345,45.84 348.16,43.24 348.16,39.08 C348.16,37.44 347.52,36 346.6,35.12 L350.56,35.12 L350.56,32.56 L343.8,32.56 C343.08,32.28 342.12,32.08 341.04,32.08 C337.08,32.08 333.72,34.76 333.72,39 C333.72,41.32 334.96,43.2 336.24,44.24 L336.24,44.4 C335.24,45.08 334.12,46.36 334.12,48 C334.12,49.52 334.88,50.56 335.84,51.16 L335.84,51.32 C334.08,52.52 333,54.08 333,55.72 C333,59.08 336.28,60.96 341.04,60.96 Z M341.04,43.6 C338.8,43.6 336.92,41.84 336.92,39 C336.92,36.16 338.76,34.48 341.04,34.48 C343.32,34.48 345.16,36.2 345.16,39 C345.16,41.84 343.28,43.6 341.04,43.6 Z M341.52,58.64 C338,58.64 335.88,57.36 335.88,55.28 C335.88,54.16 336.48,53 337.88,52 C338.72,52.24 339.64,52.32 340.4,52.32 L343.72,52.32 C346.28,52.32 347.64,52.92 347.64,54.72 C347.64,56.72 345.2,58.64 341.52,58.64 Z M358.16,52.48 C359,52.48 359.6,52.36 360.08,52.12 L359.64,49.64 C359.32,49.72 359.16,49.72 358.96,49.72 C358.44,49.72 358,49.36 358,48.32 L358,23.52 L354.68,23.52 L354.68,48.08 C354.68,50.88 355.68,52.48 358.16,52.48 Z M372.72,52.48 C375.4,52.48 377.48,51.68 379.16,50.48 L378,48.36 C376.64,49.28 375,49.8 373.12,49.8 C369.44,49.8 367,47.16 366.72,43.16 L379.8,43.16 C379.92,42.52 379.96,41.92 379.96,41.2 C379.96,35.6 377.12,32.08 372.16,32.08 C367.72,32.08 363.44,35.96 363.44,42.28 C363.44,48.72 367.52,52.48 372.72,52.48 Z M377,40.6 L366.72,40.6 C367.12,36.88 369.52,34.72 372.24,34.72 C375.2,34.72 377,36.76 377,40.6 Z M400.96,57.04 L400.96,54.84 L381.92,54.84 L381.92,57.04 L400.96,57.04 Z M412.8,52 L419.68,32.56 L416.4,32.56 L412.76,43.56 C412.16,45.48 411.52,47.44 410.96,49.32 L410.8,49.32 C410.2,47.44 409.6,45.48 409,43.56 L405.36,32.56 L401.92,32.56 L408.92,52 L412.8,52 Z M425.12,28.56 C426.4,28.56 427.32,27.72 427.32,26.4 C427.32,25.12 426.4,24.24 425.12,24.24 C423.84,24.24 422.92,25.12 422.92,26.4 C422.92,27.72 423.84,28.56 425.12,28.56 Z M426.76,52 L426.76,32.56 L423.44,32.56 L423.44,52 L426.76,52 Z M441.16,52.48 C443.84,52.48 445.92,51.68 447.6,50.48 L446.44,48.36 C445.08,49.28 443.44,49.8 441.56,49.8 C437.88,49.8 435.44,47.16 435.16,43.16 L448.24,43.16 C448.36,42.52 448.4,41.92 448.4,41.2 C448.4,35.6 445.56,32.08 440.6,32.08 C436.16,32.08 431.88,35.96 431.88,42.28 C431.88,48.72 435.96,52.48 441.16,52.48 Z M445.44,40.6 L435.16,40.6 C435.56,36.88 437.96,34.72 440.68,34.72 C443.64,34.72 445.44,36.76 445.44,40.6 Z M460.28,52 L462.88,41.56 C463.4,39.8 463.76,38.08 464.12,35.8 L464.28,35.8 C464.72,38.08 465.08,39.76 465.56,41.56 L468.2,52 L472.4,52 L477.64,32.56 L474.48,32.56 L471.64,43.84 C471.2,45.6 470.88,47.28 470.48,49.36 L470.32,49.36 C469.92,47.28 469.48,45.6 469.04,43.84 L466.08,32.56 L462.52,32.56 L459.6,43.84 C459.16,45.6 458.8,47.28 458.4,49.36 L458.24,49.36 C457.92,47.28 457.52,45.6 457.08,43.84 L454.24,32.56 L450.84,32.56 L456.28,52 L460.28,52 Z M498.12,57.04 L498.12,54.84 L479.08,54.84 L479.08,57.04 L498.12,57.04 Z M505.16,52 L505.16,46.88 L508.76,42.68 L514.44,52 L518.04,52 L510.72,40.4 L517.2,32.56 L513.48,32.56 L505.28,42.72 L505.16,42.72 L505.16,23.52 L501.88,23.52 L501.88,52 L505.16,52 Z M523.36,28.56 C524.64,28.56 525.56,27.72 525.56,26.4 C525.56,25.12 524.64,24.24 523.36,24.24 C522.08,24.24 521.16,25.12 521.16,26.4 C521.16,27.72 522.08,28.56 523.36,28.56 Z M525,52 L525,32.56 L521.68,32.56 L521.68,52 L525,52 Z M537.68,52.48 C539,52.48 540.32,52.12 541.36,51.64 L540.68,49.28 C539.88,49.64 539.16,49.76 538.44,49.76 C536.24,49.76 535.44,48.4 535.44,46.04 L535.44,35.24 L540.72,35.24 L540.72,32.56 L535.44,32.56 L535.44,26.32 L532.68,26.32 L532.28,32.56 L529.24,32.76 L529.24,35.24 L532.12,35.24 L532.12,45.96 C532.12,49.84 533.52,52.48 537.68,52.48 Z M546.84,52.48 C548.16,52.48 549.24,51.44 549.24,49.96 C549.24,48.44 548.16,47.4 546.84,47.4 C545.52,47.4 544.44,48.44 544.44,49.96 C544.44,51.44 545.52,52.48 546.84,52.48 Z M558.6,52.48 C559.44,52.48 560.04,52.36 560.52,52.12 L560.08,49.64 C559.76,49.72 559.6,49.72 559.4,49.72 C558.88,49.72 558.44,49.36 558.44,48.32 L558.44,23.52 L555.12,23.52 L555.12,48.08 C555.12,50.88 556.12,52.48 558.6,52.48 Z M571.88,60.96 C577.92,60.96 581.72,57.84 581.72,54.2 C581.72,51 579.44,49.56 574.92,49.56 L571.16,49.56 C568.56,49.56 567.76,48.68 567.76,47.48 C567.76,46.4 568.28,45.76 569,45.16 C569.88,45.6 570.92,45.84 571.88,45.84 C575.84,45.84 579,43.24 579,39.08 C579,37.44 578.36,36 577.44,35.12 L581.4,35.12 L581.4,32.56 L574.64,32.56 C573.92,32.28 572.96,32.08 571.88,32.08 C567.92,32.08 564.56,34.76 564.56,39 C564.56,41.32 565.8,43.2 567.08,44.24 L567.08,44.4 C566.08,45.08 564.96,46.36 564.96,48 C564.96,49.52 565.72,50.56 566.68,51.16 L566.68,51.32 C564.92,52.52 563.84,54.08 563.84,55.72 C563.84,59.08 567.12,60.96 571.88,60.96 Z M571.88,43.6 C569.64,43.6 567.76,41.84 567.76,39 C567.76,36.16 569.6,34.48 571.88,34.48 C574.16,34.48 576,36.2 576,39 C576,41.84 574.12,43.6 571.88,43.6 Z M572.36,58.64 C568.84,58.64 566.72,57.36 566.72,55.28 C566.72,54.16 567.32,53 568.72,52 C569.56,52.24 570.48,52.32 571.24,52.32 L574.56,52.32 C577.12,52.32 578.48,52.92 578.48,54.72 C578.48,56.72 576.04,58.64 572.36,58.64 Z M588.84,60.2 L588.84,53.64 L588.76,50.24 C590.52,51.64 592.36,52.48 594.12,52.48 C598.56,52.48 602.56,48.6 602.56,42 C602.56,35.96 599.84,32.08 594.84,32.08 C592.6,32.08 590.4,33.32 588.64,34.8 L588.52,34.8 L588.24,32.56 L585.52,32.56 L585.52,60.2 L588.84,60.2 Z M593.56,49.68 C592.28,49.68 590.6,49.16 588.84,47.68 L588.84,37.52 C590.72,35.76 592.36,34.88 594,34.88 C597.64,34.88 599.12,37.72 599.12,42 C599.12,46.8 596.76,49.68 593.56,49.68 Z" id="loginom_single_view_kit.lgp" fill="#333333" fill-rule="nonzero"></path>
            <g id="folder">
                <path d="M64,0 C66.209139,-4.05812251e-16 68,1.790861 68,4 L68,66 C68,68.209139 66.209139,70 64,70 L60,70 C62.209139,70 64,68.209139 64,66 L64,66 L64,4 C64,1.790861 62.209139,-4.05812251e-16 60,0 L60,0 L64,0 Z" id="Combined-Shape" fill="#FCA65C"></path>
                <path d="M72,0 C74.209139,-4.05812251e-16 76,1.790861 76,4 L76,66 C76,68.209139 74.209139,70 72,70 L68,70 C70.209139,70 72,68.209139 72,66 L72,66 L72,4 C72,1.790861 70.209139,-4.05812251e-16 68,0 L68,0 L72,0 Z" id="Combined-Shape" fill="#FCA65C"></path>
                <path d="M80,0 C82.209139,-4.05812251e-16 84,1.790861 84,4 L84,66 C84,68.209139 82.209139,70 80,70 L76,70 C78.209139,70 80,68.209139 80,66 L80,66 L80,4 C80,1.790861 78.209139,-4.05812251e-16 76,0 L76,0 L80,0 Z" id="Combined-Shape" fill="#FCA65C"></path>
                <rect id="Rectangle" fill="#73B0DE" x="0" y="0" width="60" height="70" rx="4"></rect>
                <g id="Group" transform="translate(12.000000, 22.000000)" fill="#F9F9F9">
                    <rect id="Rectangle" x="0" y="0" width="36" height="2" rx="1"></rect>
                    <rect id="Rectangle" x="0" y="6" width="36" height="2" rx="1"></rect>
                    <rect id="Rectangle" x="0" y="12" width="36" height="2" rx="1"></rect>
                    <rect id="Rectangle" x="0" y="18" width="36" height="2" rx="1"></rect>
                    <rect id="Rectangle" x="0" y="24" width="25" height="2" rx="1"></rect>
                </g>
            </g>
        </g>
        <g id="trees-icon-label" transform="translate(575.000000, 646.000000)">
            <path d="M148.36,53.0442857 C152.96,53.0442857 155.48,50.4042857 155.48,47.2442857 C155.48,43.7242857 152.56,42.4042857 149.52,41.3242857 C147.08,40.4842857 145.4,39.7642857 145.4,38.0042857 C145.4,36.5642857 146.48,35.2042857 148.96,35.2042857 C150.68,35.2042857 152.08,35.7642857 153.44,36.7642857 L154.96,34.8442857 C153.44,33.5642857 151.36,32.6442857 148.92,32.6442857 C144.68,32.6442857 142.2,35.0442857 142.2,38.1642857 C142.2,41.3642857 145,42.7642857 147.92,43.8042857 L148.358839,43.9651509 C150.3984,44.7214413 152.28,45.577619 152.28,47.4442857 C152.28,49.1242857 151.04,50.4442857 148.48,50.4442857 C146.08,50.4442857 144.32,49.7242857 142.64,48.3242857 L141.12,50.2442857 C142.92,52.0042857 145.52,53.0442857 148.36,53.0442857 Z M161.72,29.1242857 C163,29.1242857 163.92,28.2842857 163.92,26.9642857 C163.92,25.6842857 163,24.8042857 161.72,24.8042857 C160.44,24.8042857 159.52,25.6842857 159.52,26.9642857 C159.52,28.2842857 160.44,29.1242857 161.72,29.1242857 Z M163.36,52.5642857 L163.36,33.1242857 L160.04,33.1242857 L160.04,52.5642857 L163.36,52.5642857 Z M173.4,53.0442857 C174.24,53.0442857 174.84,52.9242857 175.32,52.6842857 L174.88,50.2042857 C174.56,50.2842857 174.4,50.2842857 174.2,50.2842857 C173.68,50.2842857 173.24,49.9242857 173.24,48.8842857 L173.24,24.0842857 L169.92,24.0842857 L169.92,48.6442857 C169.92,51.4442857 170.92,53.0442857 173.4,53.0442857 Z M188.2,52.5642857 L195.08,33.1242857 L191.8,33.1242857 L188.16,44.1242857 C187.56,46.0442857 186.92,48.0042857 186.36,49.8842857 L186.2,49.8842857 C185.6,48.0042857 185,46.0442857 184.4,44.1242857 L180.76,33.1242857 L177.32,33.1242857 L184.32,52.5642857 L188.2,52.5642857 Z M206.68,53.0442857 C209.36,53.0442857 211.44,52.2442857 213.12,51.0442857 L211.96,48.9242857 C210.6,49.8442857 208.96,50.3642857 207.08,50.3642857 C203.4,50.3642857 200.96,47.7242857 200.68,43.7242857 L213.76,43.7242857 C213.88,43.0842857 213.92,42.4842857 213.92,41.7642857 C213.92,36.1642857 211.08,32.6442857 206.12,32.6442857 C201.68,32.6442857 197.4,36.5242857 197.4,42.8442857 C197.4,49.2842857 201.48,53.0442857 206.68,53.0442857 Z M210.96,41.1642857 L200.68,41.1642857 C201.08,37.4442857 203.48,35.2842857 206.2,35.2842857 C209.16,35.2842857 210.96,37.3242857 210.96,41.1642857 Z M222,52.5642857 L222,40.0842857 C223.32,36.8042857 225.28,35.6442857 226.92,35.6442857 C227.68,35.6442857 228.12,35.7242857 228.68,35.8842857 L229.4,33.0442857 C228.8,32.7642857 228.2,32.6442857 227.32,32.6442857 C225.16,32.6442857 223.16,34.2042857 221.8,36.6442857 L221.68,36.6442857 L221.4,33.1242857 L218.68,33.1242857 L218.68,52.5642857 L222,52.5642857 Z M248.84,57.6042857 L248.84,55.4042857 L229.8,55.4042857 L229.8,57.6042857 L248.84,57.6042857 Z M255.88,52.5642857 L255.88,47.4442857 L259.48,43.2442857 L265.16,52.5642857 L268.76,52.5642857 L261.44,40.9642857 L267.92,33.1242857 L264.2,33.1242857 L256,43.2842857 L255.88,43.2842857 L255.88,24.0842857 L252.6,24.0842857 L252.6,52.5642857 L255.88,52.5642857 Z M274.08,29.1242857 C275.36,29.1242857 276.28,28.2842857 276.28,26.9642857 C276.28,25.6842857 275.36,24.8042857 274.08,24.8042857 C272.8,24.8042857 271.88,25.6842857 271.88,26.9642857 C271.88,28.2842857 272.8,29.1242857 274.08,29.1242857 Z M275.72,52.5642857 L275.72,33.1242857 L272.4,33.1242857 L272.4,52.5642857 L275.72,52.5642857 Z M288.4,53.0442857 C289.72,53.0442857 291.04,52.6842857 292.08,52.2042857 L291.4,49.8442857 C290.6,50.2042857 289.88,50.3242857 289.16,50.3242857 C286.96,50.3242857 286.16,48.9642857 286.16,46.6042857 L286.16,35.8042857 L291.44,35.8042857 L291.44,33.1242857 L286.16,33.1242857 L286.16,26.8842857 L283.4,26.8842857 L283,33.1242857 L279.96,33.3242857 L279.96,35.8042857 L282.84,35.8042857 L282.84,46.5242857 C282.84,50.4042857 284.24,53.0442857 288.4,53.0442857 Z" id="silver_kit" fill="#333333" fill-rule="nonzero"></path>
            <g id="folder" transform="translate(0.000000, 0.500000)">
                <path d="M39.1952339,1.36598157 L43.8047661,6.63401843 C44.5643185,7.50207827 45.6616226,8 46.8150729,8 L92,8 C94.209139,8 96,9.790861 96,12 L96,70 L96,70 L4,70 C1.790861,70 2.705415e-16,68.209139 0,66 L0,4 C-2.705415e-16,1.790861 1.790861,4.05812251e-16 4,0 L36.1849271,0 C37.3383774,-5.98504512e-15 38.4356815,0.497921729 39.1952339,1.36598157 Z" id="Path" fill="#FCA65C"></path>
                <path d="M58.1952339,14.3659816 L62.8047661,19.6340184 C63.5643185,20.5020783 64.6616226,21 65.8150729,21 L96.1538462,21 C98.3629852,21 100.153846,22.790861 100.153846,25 L100.153846,70 L100.153846,70 L12,70 C9.790861,70 8,68.209139 8,66 L8,17 C8,14.790861 9.790861,13 12,13 L55.1849271,13 C56.3383774,13 57.4356815,13.4979217 58.1952339,14.3659816 Z" id="Path" fill="#73B0DE" transform="translate(54.076923, 41.500000) scale(-1, 1) translate(-54.076923, -41.500000) "></path>
                <path d="M9,58 L9,70 L4,70 L4.19964034,69.9951047 C6.31603153,69.8910789 8,68.1421954 8,66 L8,66 L8,58 L9,58 Z" id="Combined-Shape" fill="#73B0DE"></path>
            </g>
        </g>
        <g id="trees-icon-label" transform="translate(737.000000, 777.000000)">
            <path d="M146.6,60.7642857 L146.6,54.2042857 L146.52,50.8042857 C148.28,52.2042857 150.12,53.0442857 151.88,53.0442857 C156.32,53.0442857 160.32,49.1642857 160.32,42.5642857 C160.32,36.5242857 157.6,32.6442857 152.6,32.6442857 C150.36,32.6442857 148.16,33.8842857 146.4,35.3642857 L146.28,35.3642857 L146,33.1242857 L143.28,33.1242857 L143.28,60.7642857 L146.6,60.7642857 Z M151.32,50.2442857 C150.04,50.2442857 148.36,49.7242857 146.6,48.2442857 L146.6,38.0842857 C148.48,36.3242857 150.12,35.4442857 151.76,35.4442857 C155.4,35.4442857 156.88,38.2842857 156.88,42.5642857 C156.88,47.3642857 154.52,50.2442857 151.32,50.2442857 Z M169.96,53.0442857 C172.4,53.0442857 174.52,51.8042857 176.36,50.2442857 L176.48,50.2442857 L176.8,52.5642857 L179.52,52.5642857 L179.52,40.6042857 C179.52,35.8042857 177.48,32.6442857 172.76,32.6442857 C169.64,32.6442857 166.92,33.9642857 165.12,35.1642857 L166.4,37.4042857 C167.92,36.4042857 169.96,35.4042857 172.2,35.4042857 C175.36,35.4042857 176.16,37.7642857 176.2,40.2042857 C167.88,41.1242857 164.28,43.2042857 164.28,47.5242857 C164.28,51.0442857 166.72,53.0442857 169.96,53.0442857 Z M170.88,50.3242857 C169,50.3242857 167.52,49.4842857 167.52,47.3242857 C167.52,44.8042857 169.64,43.3242857 176.2,42.5642857 L176.2,47.8442857 C174.32,49.4842857 172.76,50.3242857 170.88,50.3242857 Z M193.32,53.0442857 C195.64,53.0442857 197.84,52.1642857 199.6,50.5642857 L198.16,48.4442857 C197,49.4842857 195.4,50.2842857 193.6,50.2842857 C190.04,50.2842857 187.64,47.3242857 187.64,42.8842857 C187.64,38.4042857 190.2,35.4042857 193.72,35.4042857 C195.28,35.4042857 196.52,36.0042857 197.6,37.0042857 L199.24,34.9242857 C197.88,33.6442857 196.12,32.6442857 193.56,32.6442857 C188.56,32.6442857 184.2,36.3642857 184.2,42.8842857 C184.2,49.3242857 188.16,53.0442857 193.32,53.0442857 Z M207.16,52.5642857 L207.16,47.4442857 L210.76,43.2442857 L216.44,52.5642857 L220.04,52.5642857 L212.72,40.9642857 L219.2,33.1242857 L215.48,33.1242857 L207.28,43.2842857 L207.16,43.2842857 L207.16,24.0842857 L203.88,24.0842857 L203.88,52.5642857 L207.16,52.5642857 Z M228.16,53.0442857 C230.6,53.0442857 232.72,51.8042857 234.56,50.2442857 L234.68,50.2442857 L235,52.5642857 L237.72,52.5642857 L237.72,40.6042857 C237.72,35.8042857 235.68,32.6442857 230.96,32.6442857 C227.84,32.6442857 225.12,33.9642857 223.32,35.1642857 L224.6,37.4042857 C226.12,36.4042857 228.16,35.4042857 230.4,35.4042857 C233.56,35.4042857 234.36,37.7642857 234.4,40.2042857 C226.08,41.1242857 222.48,43.2042857 222.48,47.5242857 C222.48,51.0442857 224.92,53.0442857 228.16,53.0442857 Z M229.08,50.3242857 C227.2,50.3242857 225.72,49.4842857 225.72,47.3242857 C225.72,44.8042857 227.84,43.3242857 234.4,42.5642857 L234.4,47.8442857 C232.52,49.4842857 230.96,50.3242857 229.08,50.3242857 Z M250.4,61.5242857 C256.44,61.5242857 260.24,58.4042857 260.24,54.7642857 C260.24,51.5642857 257.96,50.1242857 253.44,50.1242857 L249.68,50.1242857 C247.08,50.1242857 246.28,49.2442857 246.28,48.0442857 C246.28,46.9642857 246.8,46.3242857 247.52,45.7242857 C248.4,46.1642857 249.44,46.4042857 250.4,46.4042857 C254.36,46.4042857 257.52,43.8042857 257.52,39.6442857 C257.52,38.0042857 256.88,36.5642857 255.96,35.6842857 L259.92,35.6842857 L259.92,33.1242857 L253.16,33.1242857 C252.44,32.8442857 251.48,32.6442857 250.4,32.6442857 C246.44,32.6442857 243.08,35.3242857 243.08,39.5642857 C243.08,41.8842857 244.32,43.7642857 245.6,44.8042857 L245.6,44.9642857 C244.6,45.6442857 243.48,46.9242857 243.48,48.5642857 C243.48,50.0842857 244.24,51.1242857 245.2,51.7242857 L245.2,51.8842857 C243.44,53.0842857 242.36,54.6442857 242.36,56.2842857 C242.36,59.6442857 245.64,61.5242857 250.4,61.5242857 Z M250.4,44.1642857 C248.16,44.1642857 246.28,42.4042857 246.28,39.5642857 C246.28,36.7242857 248.12,35.0442857 250.4,35.0442857 C252.68,35.0442857 254.52,36.7642857 254.52,39.5642857 C254.52,42.4042857 252.64,44.1642857 250.4,44.1642857 Z M250.88,59.2042857 C247.36,59.2042857 245.24,57.9242857 245.24,55.8442857 C245.24,54.7242857 245.84,53.5642857 247.24,52.5642857 C248.08,52.8042857 249,52.8842857 249.76,52.8842857 L253.08,52.8842857 C255.64,52.8842857 257,53.4842857 257,55.2842857 C257,57.2842857 254.56,59.2042857 250.88,59.2042857 Z M271.88,53.0442857 C274.56,53.0442857 276.64,52.2442857 278.32,51.0442857 L277.16,48.9242857 C275.8,49.8442857 274.16,50.3642857 272.28,50.3642857 C268.6,50.3642857 266.16,47.7242857 265.88,43.7242857 L278.96,43.7242857 C279.08,43.0842857 279.12,42.4842857 279.12,41.7642857 C279.12,36.1642857 276.28,32.6442857 271.32,32.6442857 C266.88,32.6442857 262.6,36.5242857 262.6,42.8442857 C262.6,49.2842857 266.68,53.0442857 271.88,53.0442857 Z M276.16,41.1642857 L265.88,41.1642857 C266.28,37.4442857 268.68,35.2842857 271.4,35.2842857 C274.36,35.2842857 276.16,37.3242857 276.16,41.1642857 Z" id="package" fill="#333333" fill-rule="nonzero"></path>
            <g id="folder" transform="translate(0.000000, 0.500000)">
                <path d="M39.1952339,1.36598157 L43.8047661,6.63401843 C44.5643185,7.50207827 45.6616226,8 46.8150729,8 L92,8 C94.209139,8 96,9.790861 96,12 L96,70 L96,70 L4,70 C1.790861,70 2.705415e-16,68.209139 0,66 L0,4 C-2.705415e-16,1.790861 1.790861,4.05812251e-16 4,0 L36.1849271,0 C37.3383774,-5.98504512e-15 38.4356815,0.497921729 39.1952339,1.36598157 Z" id="Path" fill="#FCA65C"></path>
                <path d="M58.1952339,14.3659816 L62.8047661,19.6340184 C63.5643185,20.5020783 64.6616226,21 65.8150729,21 L96.1538462,21 C98.3629852,21 100.153846,22.790861 100.153846,25 L100.153846,70 L100.153846,70 L12,70 C9.790861,70 8,68.209139 8,66 L8,17 C8,14.790861 9.790861,13 12,13 L55.1849271,13 C56.3383774,13 57.4356815,13.4979217 58.1952339,14.3659816 Z" id="Path" fill="#73B0DE" transform="translate(54.076923, 41.500000) scale(-1, 1) translate(-54.076923, -41.500000) "></path>
                <path d="M9,58 L9,70 L4,70 L4.19964034,69.9951047 C6.31603153,69.8910789 8,68.1421954 8,66 L8,66 L8,58 L9,58 Z" id="Combined-Shape" fill="#73B0DE"></path>
            </g>
        </g>
        <g id="trees-icon-label" transform="translate(899.000000, 908.000000)">
            <path d="M130.76,52.48 C131.6,52.48 132.2,52.36 132.68,52.12 L132.24,49.64 C131.92,49.72 131.76,49.72 131.56,49.72 C131.04,49.72 130.6,49.36 130.6,48.32 L130.6,23.52 L127.28,23.52 L127.28,48.08 C127.28,50.88 128.28,52.48 130.76,52.48 Z M145.04,52.48 C149.8,52.48 154.08,48.76 154.08,42.32 C154.08,35.8 149.8,32.08 145.04,32.08 C140.28,32.08 136.04,35.8 136.04,42.32 C136.04,48.76 140.28,52.48 145.04,52.48 Z M145.04,49.72 C141.72,49.72 139.48,46.76 139.48,42.32 C139.48,37.84 141.72,34.84 145.04,34.84 C148.4,34.84 150.64,37.84 150.64,42.32 C150.64,46.76 148.4,49.72 145.04,49.72 Z M165.72,60.96 C171.76,60.96 175.56,57.84 175.56,54.2 C175.56,51 173.28,49.56 168.76,49.56 L165,49.56 C162.4,49.56 161.6,48.68 161.6,47.48 C161.6,46.4 162.12,45.76 162.84,45.16 C163.72,45.6 164.76,45.84 165.72,45.84 C169.68,45.84 172.84,43.24 172.84,39.08 C172.84,37.44 172.2,36 171.28,35.12 L175.24,35.12 L175.24,32.56 L168.48,32.56 C167.76,32.28 166.8,32.08 165.72,32.08 C161.76,32.08 158.4,34.76 158.4,39 C158.4,41.32 159.64,43.2 160.92,44.24 L160.92,44.4 C159.92,45.08 158.8,46.36 158.8,48 C158.8,49.52 159.56,50.56 160.52,51.16 L160.52,51.32 C158.76,52.52 157.68,54.08 157.68,55.72 C157.68,59.08 160.96,60.96 165.72,60.96 Z M165.72,43.6 C163.48,43.6 161.6,41.84 161.6,39 C161.6,36.16 163.44,34.48 165.72,34.48 C168,34.48 169.84,36.2 169.84,39 C169.84,41.84 167.96,43.6 165.72,43.6 Z M166.2,58.64 C162.68,58.64 160.56,57.36 160.56,55.28 C160.56,54.16 161.16,53 162.56,52 C163.4,52.24 164.32,52.32 165.08,52.32 L168.4,52.32 C170.96,52.32 172.32,52.92 172.32,54.72 C172.32,56.72 169.88,58.64 166.2,58.64 Z M181.04,28.56 C182.32,28.56 183.24,27.72 183.24,26.4 C183.24,25.12 182.32,24.24 181.04,24.24 C179.76,24.24 178.84,25.12 178.84,26.4 C178.84,27.72 179.76,28.56 181.04,28.56 Z M182.68,52 L182.68,32.56 L179.36,32.56 L179.36,52 L182.68,52 Z M192.56,52 L192.56,37.92 C194.48,35.96 195.88,34.96 197.84,34.96 C200.4,34.96 201.52,36.48 201.52,40.12 L201.52,52 L204.84,52 L204.84,39.68 C204.84,34.72 203,32.08 198.88,32.08 C196.2,32.08 194.2,33.52 192.36,35.36 L192.24,35.36 L191.96,32.56 L189.24,32.56 L189.24,52 L192.56,52 Z M218.68,52.48 C223.44,52.48 227.72,48.76 227.72,42.32 C227.72,35.8 223.44,32.08 218.68,32.08 C213.92,32.08 209.68,35.8 209.68,42.32 C209.68,48.76 213.92,52.48 218.68,52.48 Z M218.68,49.72 C215.36,49.72 213.12,46.76 213.12,42.32 C213.12,37.84 215.36,34.84 218.68,34.84 C222.04,34.84 224.28,37.84 224.28,42.32 C224.28,46.76 222.04,49.72 218.68,49.72 Z M236.12,52 L236.12,37.92 C237.92,35.92 239.52,34.96 240.96,34.96 C243.44,34.96 244.56,36.48 244.56,40.12 L244.56,52 L247.88,52 L247.88,37.92 C249.68,35.92 251.24,34.96 252.76,34.96 C255.2,34.96 256.36,36.48 256.36,40.12 L256.36,52 L259.68,52 L259.68,39.68 C259.68,34.72 257.76,32.08 253.76,32.08 C251.4,32.08 249.36,33.6 247.36,35.76 C246.56,33.48 244.96,32.08 241.96,32.08 C239.64,32.08 237.64,33.52 235.92,35.36 L235.8,35.36 L235.52,32.56 L232.8,32.56 L232.8,52 L236.12,52 Z M282.2,57.04 L282.2,54.84 L263.16,54.84 L263.16,57.04 L282.2,57.04 Z M291.04,52.48 C295.64,52.48 298.16,49.84 298.16,46.68 C298.16,43.16 295.24,41.84 292.2,40.76 C289.76,39.92 288.08,39.2 288.08,37.44 C288.08,36 289.16,34.64 291.64,34.64 C293.36,34.64 294.76,35.2 296.12,36.2 L297.64,34.28 C296.12,33 294.04,32.08 291.6,32.08 C287.36,32.08 284.88,34.48 284.88,37.6 C284.88,40.8 287.68,42.2 290.6,43.24 L291.038839,43.4008652 C293.0784,44.1571556 294.96,45.0133333 294.96,46.88 C294.96,48.56 293.72,49.88 291.16,49.88 C288.76,49.88 287,49.16 285.32,47.76 L283.8,49.68 C285.6,51.44 288.2,52.48 291.04,52.48 Z M304.4,28.56 C305.68,28.56 306.6,27.72 306.6,26.4 C306.6,25.12 305.68,24.24 304.4,24.24 C303.12,24.24 302.2,25.12 302.2,26.4 C302.2,27.72 303.12,28.56 304.4,28.56 Z M306.04,52 L306.04,32.56 L302.72,32.56 L302.72,52 L306.04,52 Z M316.08,52.48 C316.92,52.48 317.52,52.36 318,52.12 L317.56,49.64 C317.24,49.72 317.08,49.72 316.88,49.72 C316.36,49.72 315.92,49.36 315.92,48.32 L315.92,23.52 L312.6,23.52 L312.6,48.08 C312.6,50.88 313.6,52.48 316.08,52.48 Z M330.88,52 L337.76,32.56 L334.48,32.56 L330.84,43.56 C330.24,45.48 329.6,47.44 329.04,49.32 L328.88,49.32 C328.28,47.44 327.68,45.48 327.08,43.56 L323.44,32.56 L320,32.56 L327,52 L330.88,52 Z M349.36,52.48 C352.04,52.48 354.12,51.68 355.8,50.48 L354.64,48.36 C353.28,49.28 351.64,49.8 349.76,49.8 C346.08,49.8 343.64,47.16 343.36,43.16 L356.44,43.16 C356.56,42.52 356.6,41.92 356.6,41.2 C356.6,35.6 353.76,32.08 348.8,32.08 C344.36,32.08 340.08,35.96 340.08,42.28 C340.08,48.72 344.16,52.48 349.36,52.48 Z M353.64,40.6 L343.36,40.6 C343.76,36.88 346.16,34.72 348.88,34.72 C351.84,34.72 353.64,36.76 353.64,40.6 Z M364.68,52 L364.68,39.52 C366,36.24 367.96,35.08 369.6,35.08 C370.36,35.08 370.8,35.16 371.36,35.32 L372.08,32.48 C371.48,32.2 370.88,32.08 370,32.08 C367.84,32.08 365.84,33.64 364.48,36.08 L364.36,36.08 L364.08,32.56 L361.36,32.56 L361.36,52 L364.68,52 Z M391.52,57.04 L391.52,54.84 L372.48,54.84 L372.48,57.04 L391.52,57.04 Z M398.56,52 L398.56,46.88 L402.16,42.68 L407.84,52 L411.44,52 L404.12,40.4 L410.6,32.56 L406.88,32.56 L398.68,42.72 L398.56,42.72 L398.56,23.52 L395.28,23.52 L395.28,52 L398.56,52 Z M416.76,28.56 C418.04,28.56 418.96,27.72 418.96,26.4 C418.96,25.12 418.04,24.24 416.76,24.24 C415.48,24.24 414.56,25.12 414.56,26.4 C414.56,27.72 415.48,28.56 416.76,28.56 Z M418.4,52 L418.4,32.56 L415.08,32.56 L415.08,52 L418.4,52 Z M431.08,52.48 C432.4,52.48 433.72,52.12 434.76,51.64 L434.08,49.28 C433.28,49.64 432.56,49.76 431.84,49.76 C429.64,49.76 428.84,48.4 428.84,46.04 L428.84,35.24 L434.12,35.24 L434.12,32.56 L428.84,32.56 L428.84,26.32 L426.08,26.32 L425.68,32.56 L422.64,32.76 L422.64,35.24 L425.52,35.24 L425.52,45.96 C425.52,49.84 426.92,52.48 431.08,52.48 Z M440.24,52.48 C441.56,52.48 442.64,51.44 442.64,49.96 C442.64,48.44 441.56,47.4 440.24,47.4 C438.92,47.4 437.84,48.44 437.84,49.96 C437.84,51.44 438.92,52.48 440.24,52.48 Z M452,52.48 C452.84,52.48 453.44,52.36 453.92,52.12 L453.48,49.64 C453.16,49.72 453,49.72 452.8,49.72 C452.28,49.72 451.84,49.36 451.84,48.32 L451.84,23.52 L448.52,23.52 L448.52,48.08 C448.52,50.88 449.52,52.48 452,52.48 Z M465.28,60.96 C471.32,60.96 475.12,57.84 475.12,54.2 C475.12,51 472.84,49.56 468.32,49.56 L464.56,49.56 C461.96,49.56 461.16,48.68 461.16,47.48 C461.16,46.4 461.68,45.76 462.4,45.16 C463.28,45.6 464.32,45.84 465.28,45.84 C469.24,45.84 472.4,43.24 472.4,39.08 C472.4,37.44 471.76,36 470.84,35.12 L474.8,35.12 L474.8,32.56 L468.04,32.56 C467.32,32.28 466.36,32.08 465.28,32.08 C461.32,32.08 457.96,34.76 457.96,39 C457.96,41.32 459.2,43.2 460.48,44.24 L460.48,44.4 C459.48,45.08 458.36,46.36 458.36,48 C458.36,49.52 459.12,50.56 460.08,51.16 L460.08,51.32 C458.32,52.52 457.24,54.08 457.24,55.72 C457.24,59.08 460.52,60.96 465.28,60.96 Z M465.28,43.6 C463.04,43.6 461.16,41.84 461.16,39 C461.16,36.16 463,34.48 465.28,34.48 C467.56,34.48 469.4,36.2 469.4,39 C469.4,41.84 467.52,43.6 465.28,43.6 Z M465.76,58.64 C462.24,58.64 460.12,57.36 460.12,55.28 C460.12,54.16 460.72,53 462.12,52 C462.96,52.24 463.88,52.32 464.64,52.32 L467.96,52.32 C470.52,52.32 471.88,52.92 471.88,54.72 C471.88,56.72 469.44,58.64 465.76,58.64 Z M482.24,60.2 L482.24,53.64 L482.16,50.24 C483.92,51.64 485.76,52.48 487.52,52.48 C491.96,52.48 495.96,48.6 495.96,42 C495.96,35.96 493.24,32.08 488.24,32.08 C486,32.08 483.8,33.32 482.04,34.8 L481.92,34.8 L481.64,32.56 L478.92,32.56 L478.92,60.2 L482.24,60.2 Z M486.96,49.68 C485.68,49.68 484,49.16 482.24,47.68 L482.24,37.52 C484.12,35.76 485.76,34.88 487.4,34.88 C491.04,34.88 492.52,37.72 492.52,42 C492.52,46.8 490.16,49.68 486.96,49.68 Z" id="loginom_silver_kit.lgp" fill="#333333" fill-rule="nonzero"></path>
            <g id="folder">
                <path d="M64,0 C66.209139,-4.05812251e-16 68,1.790861 68,4 L68,66 C68,68.209139 66.209139,70 64,70 L60,70 C62.209139,70 64,68.209139 64,66 L64,66 L64,4 C64,1.790861 62.209139,-4.05812251e-16 60,0 L60,0 L64,0 Z" id="Combined-Shape" fill="#FCA65C"></path>
                <path d="M72,0 C74.209139,-4.05812251e-16 76,1.790861 76,4 L76,66 C76,68.209139 74.209139,70 72,70 L68,70 C70.209139,70 72,68.209139 72,66 L72,66 L72,4 C72,1.790861 70.209139,-4.05812251e-16 68,0 L68,0 L72,0 Z" id="Combined-Shape" fill="#FCA65C"></path>
                <path d="M80,0 C82.209139,-4.05812251e-16 84,1.790861 84,4 L84,66 C84,68.209139 82.209139,70 80,70 L76,70 C78.209139,70 80,68.209139 80,66 L80,66 L80,4 C80,1.790861 78.209139,-4.05812251e-16 76,0 L76,0 L80,0 Z" id="Combined-Shape" fill="#FCA65C"></path>
                <rect id="Rectangle" fill="#73B0DE" x="0" y="0" width="60" height="70" rx="4"></rect>
                <g id="Group" transform="translate(12.000000, 22.000000)" fill="#F9F9F9">
                    <rect id="Rectangle" x="0" y="0" width="36" height="2" rx="1"></rect>
                    <rect id="Rectangle" x="0" y="6" width="36" height="2" rx="1"></rect>
                    <rect id="Rectangle" x="0" y="12" width="36" height="2" rx="1"></rect>
                    <rect id="Rectangle" x="0" y="18" width="36" height="2" rx="1"></rect>
                    <rect id="Rectangle" x="0" y="24" width="25" height="2" rx="1"></rect>
                </g>
            </g>
        </g>
        <g id="Arrow/Gray-Circle/L-Shape-Copy" transform="translate(503.000000, 232.500000) rotate(-180.000000) translate(-503.000000, -232.500000) translate(456.000000, 186.000000)">
            <path d="M13,7 L87,7 L87,80" id="Path-4" stroke="#9A9FAF" stroke-width="4" stroke-dasharray="6"></path>
            <g id="Start-point" transform="translate(87.000000, 86.000000) rotate(90.000000) translate(-87.000000, -86.000000) translate(80.000000, 79.000000)">
                <circle id="Oval" fill="#FFFFFF" cx="7" cy="7" r="3"></circle>
                <circle id="Oval" stroke="#F7931E" stroke-width="6" cx="7" cy="7" r="7"></circle>
            </g>
            <g id="Start-point-Copy" transform="translate(7.000000, 7.000000) rotate(90.000000) translate(-7.000000, -7.000000) ">
                <circle id="Oval" fill="#FFFFFF" cx="7" cy="7" r="3"></circle>
                <circle id="Oval" stroke="#F7931E" stroke-width="6" cx="7" cy="7" r="7"></circle>
            </g>
        </g>
        <g id="Arrow/Gray-Circle/L-Shape-Copy" transform="translate(665.000000, 363.500000) rotate(-180.000000) translate(-665.000000, -363.500000) translate(618.000000, 317.000000)">
            <path d="M13,7 L87,7 L87,80" id="Path-4" stroke="#9A9FAF" stroke-width="4" stroke-dasharray="6"></path>
            <g id="Start-point" transform="translate(87.000000, 86.000000) rotate(90.000000) translate(-87.000000, -86.000000) translate(80.000000, 79.000000)">
                <circle id="Oval" fill="#FFFFFF" cx="7" cy="7" r="3"></circle>
                <circle id="Oval" stroke="#F7931E" stroke-width="6" cx="7" cy="7" r="7"></circle>
            </g>
            <g id="Start-point-Copy" transform="translate(7.000000, 7.000000) rotate(90.000000) translate(-7.000000, -7.000000) translate(0.000000, -0.000000)">
                <circle id="Oval" fill="#FFFFFF" cx="7" cy="7" r="3"></circle>
                <circle id="Oval" stroke="#F7931E" stroke-width="6" cx="7" cy="7" r="7"></circle>
            </g>
        </g>
        <g id="Arrow/Gray-Circle/L-Shape-Copy" transform="translate(665.000000, 776.500000) rotate(-180.000000) translate(-665.000000, -776.500000) translate(618.000000, 730.000000)">
            <path d="M13,7 L87,7 L87,80" id="Path-4" stroke="#9A9FAF" stroke-width="4" stroke-dasharray="6"></path>
            <g id="Start-point" transform="translate(87.000000, 86.000000) rotate(90.000000) translate(-87.000000, -86.000000) translate(80.000000, 79.000000)">
                <circle id="Oval" fill="#FFFFFF" cx="7" cy="7" r="3"></circle>
                <circle id="Oval" stroke="#F7931E" stroke-width="6" cx="7" cy="7" r="7"></circle>
            </g>
            <g id="Start-point-Copy" transform="translate(7.000000, 7.000000) rotate(90.000000) translate(-7.000000, -7.000000) translate(0.000000, -0.000000)">
                <circle id="Oval" fill="#FFFFFF" cx="7" cy="7" r="3"></circle>
                <circle id="Oval" stroke="#F7931E" stroke-width="6" cx="7" cy="7" r="7"></circle>
            </g>
        </g>
        <g id="Arrow/Gray-Circle/L-Shape-Copy" transform="translate(827.000000, 907.500000) rotate(-180.000000) translate(-827.000000, -907.500000) translate(780.000000, 861.000000)">
            <path d="M13,7 L87,7 L87,80" id="Path-4" stroke="#9A9FAF" stroke-width="4" stroke-dasharray="6"></path>
            <g id="Start-point" transform="translate(87.000000, 86.000000) rotate(90.000000) translate(-87.000000, -86.000000) translate(80.000000, 79.000000)">
                <circle id="Oval" fill="#FFFFFF" cx="7" cy="7" r="3"></circle>
                <circle id="Oval" stroke="#F7931E" stroke-width="6" cx="7" cy="7" r="7"></circle>
            </g>
            <g id="Start-point-Copy" transform="translate(7.000000, 7.000000) rotate(90.000000) translate(-7.000000, -7.000000) ">
                <circle id="Oval" fill="#FFFFFF" cx="7" cy="7" r="3"></circle>
                <circle id="Oval" stroke="#F7931E" stroke-width="6" cx="7" cy="7" r="7"></circle>
            </g>
        </g>
        <g id="Arrow/Gray-Circle/L-Shape-Copy" transform="translate(827.000000, 494.500000) rotate(-180.000000) translate(-827.000000, -494.500000) translate(780.000000, 448.000000)">
            <path d="M13,7 L87,7 L87,80" id="Path-4" stroke="#9A9FAF" stroke-width="4" stroke-dasharray="6"></path>
            <g id="Start-point" transform="translate(87.000000, 86.000000) rotate(90.000000) translate(-87.000000, -86.000000) translate(80.000000, 79.000000)">
                <circle id="Oval" fill="#FFFFFF" cx="7" cy="7" r="3"></circle>
                <circle id="Oval" stroke="#F7931E" stroke-width="6" cx="7" cy="7" r="7"></circle>
            </g>
            <g id="Start-point-Copy" transform="translate(7.000000, 7.000000) rotate(90.000000) translate(-7.000000, -7.000000) translate(0.000000, -0.000000)">
                <circle id="Oval" fill="#FFFFFF" cx="7" cy="7" r="3"></circle>
                <circle id="Oval" stroke="#F7931E" stroke-width="6" cx="7" cy="7" r="7"></circle>
            </g>
        </g>
        <g id="Arrow/Gray-Circle/L-Shape-Copy" transform="translate(506.500000, 483.000000) rotate(-180.000000) translate(-506.500000, -483.000000) translate(463.000000, 278.000000)">
            <path d="M13,7 L87,7 L87,410" id="Path-4" stroke="#9A9FAF" stroke-width="4" stroke-dasharray="6"></path>
            <g id="Start-point-Copy" transform="translate(7.000000, 7.000000) rotate(90.000000) translate(-7.000000, -7.000000) translate(0.000000, -0.000000)">
                <circle id="Oval" fill="#FFFFFF" cx="7" cy="7" r="3"></circle>
                <circle id="Oval" stroke="#F7931E" stroke-width="6" cx="7" cy="7" r="7"></circle>
            </g>
        </g>
    </g>
</svg>